<svg width="16" height="26" viewBox="0 0 16 26" fill="none" xmlns="http://www.w3.org/2000/svg">
<path d="M14.4989 0.00540974L11.1273 0C7.33944 0 4.89156 2.51147 4.89156 6.39863V9.34883H1.50158C1.20865 9.34883 0.971436 9.58632 0.971436 9.87926V14.1538C0.971436 14.4467 1.20892 14.6839 1.50158 14.6839H4.89156V25.4698C4.89156 25.7628 5.12877 26 5.42171 26H9.84466C10.1376 26 10.3748 25.7625 10.3748 25.4698V14.6839H14.3385C14.6314 14.6839 14.8686 14.4467 14.8686 14.1538L14.8703 9.87926C14.8703 9.73861 14.8143 9.6039 14.715 9.50436C14.6157 9.40483 14.4805 9.34883 14.3398 9.34883H10.3748V6.84791C10.3748 5.64587 10.6613 5.03565 12.2271 5.03565L14.4983 5.03484C14.791 5.03484 15.0282 4.79735 15.0282 4.50469V0.535564C15.0282 0.243168 14.7913 0.00595071 14.4989 0.00540974Z" fill="#0A2756"/>
</svg>
